<svg width="36" height="36" viewBox="0 0 36 36" fill="none" xmlns="http://www.w3.org/2000/svg">
<rect width="36" height="36" rx="4" fill="#FEF6EE"/>
<g clip-path="url(#clip0_62_37749)">
<path d="M12 13.5L18 10.5L24 13.5M22.5 16.5L25.5 18V24C25.5 24.3978 25.342 24.7794 25.0607 25.0607C24.7794 25.342 24.3978 25.5 24 25.5H12C11.6022 25.5 11.2206 25.342 10.9393 25.0607C10.658 24.7794 10.5 24.3978 10.5 24V18L13.5 16.5M19.5 25.5V22.5C19.5 22.1022 19.342 21.7206 19.0607 21.4393C18.7794 21.158 18.3978 21 18 21C17.6022 21 17.2206 21.158 16.9393 21.4393C16.658 21.7206 16.5 22.1022 16.5 22.5V25.5M22.5 12.75V25.5M13.5 12.75V25.5M19.5 15.75C19.5 16.5784 18.8284 17.25 18 17.25C17.1716 17.25 16.5 16.5784 16.5 15.75C16.5 14.9216 17.1716 14.25 18 14.25C18.8284 14.25 19.5 14.9216 19.5 15.75Z" stroke="#EF6320" stroke-width="1.5" stroke-linecap="round" stroke-linejoin="round"/>
</g>
<defs>
<clipPath id="clip0_62_37749">
<rect width="18" height="18" fill="white" transform="translate(9 9)"/>
</clipPath>
</defs>
</svg>
