<svg width="22" height="22" viewBox="0 0 22 22" fill="none" xmlns="http://www.w3.org/2000/svg">
<path d="M14.6665 3.66667H16.4998C16.9861 3.66667 17.4524 3.85982 17.7962 4.20364C18.14 4.54745 18.3332 5.01377 18.3332 5.5V18.3333C18.3332 18.8196 18.14 19.2859 17.7962 19.6297C17.4524 19.9735 16.9861 20.1667 16.4998 20.1667H5.49984C5.01361 20.1667 4.54729 19.9735 4.20347 19.6297C3.85966 19.2859 3.6665 18.8196 3.6665 18.3333V5.5C3.6665 5.01377 3.85966 4.54745 4.20347 4.20364C4.54729 3.85982 5.01361 3.66667 5.49984 3.66667H7.33317M10.9998 10.0833H14.6665M10.9998 14.6667H14.6665M7.33317 10.0833H7.34234M7.33317 14.6667H7.34234M8.24984 1.83333H13.7498C14.2561 1.83333 14.6665 2.24374 14.6665 2.75V4.58333C14.6665 5.08959 14.2561 5.5 13.7498 5.5H8.24984C7.74358 5.5 7.33317 5.08959 7.33317 4.58333V2.75C7.33317 2.24374 7.74358 1.83333 8.24984 1.83333Z" stroke="#5480A3" stroke-width="2" stroke-linecap="round" stroke-linejoin="round"/>
</svg>
