<svg width="20" height="20" viewBox="0 0 20 20" fill="none" xmlns="http://www.w3.org/2000/svg">
<path d="M6.66665 5.83335H13.3333M9.99998 14.5834L6.66665 12.5H7.49998C8.38403 12.5 9.23188 12.1488 9.857 11.5237C10.4821 10.8986 10.8333 10.0507 10.8333 9.16669C10.8333 8.28263 10.4821 7.43479 9.857 6.80966C9.23188 6.18454 8.38403 5.83335 7.49998 5.83335M6.66665 9.16669H13.3333M3.33331 1.66669V18.3334L4.99998 17.5L6.66665 18.3334L8.33331 17.5L9.99998 18.3334L11.6666 17.5L13.3333 18.3334L15 17.5L16.6666 18.3334V1.66669L15 2.50002L13.3333 1.66669L11.6666 2.50002L9.99998 1.66669L8.33331 2.50002L6.66665 1.66669L4.99998 2.50002L3.33331 1.66669Z" stroke="#CFDCE8" stroke-width="1.5" stroke-linecap="round" stroke-linejoin="round"/>
</svg>
