<svg width="20" height="20" viewBox="0 0 20 20" fill="none" xmlns="http://www.w3.org/2000/svg">
<path d="M3.33331 16.25V3.75002C3.33331 3.19749 3.55281 2.66758 3.94351 2.27688C4.33421 1.88618 4.86411 1.66669 5.41665 1.66669H16.6666V18.3334H5.41665C4.86411 18.3334 4.33421 18.1139 3.94351 17.7232C3.55281 17.3325 3.33331 16.8026 3.33331 16.25ZM3.33331 16.25C3.33331 15.6975 3.55281 15.1676 3.94351 14.7769C4.33421 14.3862 4.86411 14.1667 5.41665 14.1667H16.6666M9.99998 8.33335C10.9205 8.33335 11.6666 7.58716 11.6666 6.66669C11.6666 5.74621 10.9205 5.00002 9.99998 5.00002C9.0795 5.00002 8.33331 5.74621 8.33331 6.66669C8.33331 7.58716 9.0795 8.33335 9.99998 8.33335ZM9.99998 8.33335C10.663 8.33335 11.2989 8.59675 11.7677 9.06559C12.2366 9.53443 12.5 10.1703 12.5 10.8334M9.99998 8.33335C9.33694 8.33335 8.70105 8.59675 8.23221 9.06559C7.76337 9.53443 7.49998 10.1703 7.49998 10.8334" stroke="#CFDCE8" stroke-width="1.5" stroke-linecap="round" stroke-linejoin="round"/>
</svg>
