<svg width="20" height="20" viewBox="0 0 20 20" fill="none" xmlns="http://www.w3.org/2000/svg">
<path d="M15.8333 7.49999V4.99999C15.8333 4.55797 15.6577 4.13404 15.3452 3.82148C15.0326 3.50892 14.6087 3.33333 14.1667 3.33333H5.83333C5.39131 3.33333 4.96738 3.50892 4.65482 3.82148C4.34226 4.13404 4.16667 4.55797 4.16667 4.99999V7.49999M15.8333 7.49999C16.2754 7.49999 16.6993 7.67559 17.0118 7.98815C17.3244 8.30071 17.5 8.72463 17.5 9.16666V13.3333C17.5 13.7754 17.3244 14.1993 17.0118 14.5118C16.6993 14.8244 16.2754 15 15.8333 15M15.8333 7.49999C15.3913 7.49999 14.9674 7.67559 14.6548 7.98815C14.3423 8.30071 14.1667 8.72463 14.1667 9.16666V10.8333H5.83333V9.16666C5.83333 8.72463 5.65774 8.30071 5.34518 7.98815C5.03262 7.67559 4.60869 7.49999 4.16667 7.49999M4.16667 7.49999C3.72464 7.49999 3.30072 7.67559 2.98816 7.98815C2.67559 8.30071 2.5 8.72463 2.5 9.16666V13.3333C2.5 13.7754 2.67559 14.1993 2.98816 14.5118C3.30072 14.8244 3.72464 15 4.16667 15M4.16667 15H15.8333M4.16667 15V16.6667M15.8333 15V16.6667" stroke="#CFDCE8" stroke-width="1.5" stroke-linecap="round" stroke-linejoin="round"/>
</svg>
