<svg width="72" height="72" viewBox="0 0 72 72" fill="none" xmlns="http://www.w3.org/2000/svg">
<path d="M70.4551 34.4532C70.4551 53.481 55.0296 68.9063 36.002 68.9063C16.9736 68.9063 1.54883 53.481 1.54883 34.4532C1.54883 15.4254 16.9736 6.10352e-05 36.002 6.10352e-05C55.0296 6.10352e-05 70.4551 15.4254 70.4551 34.4532Z" fill="#FFBE71"/>
<path d="M48.0936 42.048H52.3123L47.7173 66.8626C46.2628 67.3886 44.7744 67.8153 43.2623 68.1399L48.0936 42.048ZM19.6874 42.048L24.2824 66.8622C25.7369 67.3879 27.2253 67.8145 28.7374 68.1393L23.9061 42.0478L19.6874 42.048ZM3.4919 4.07932H0.703588C0.263573 4.07932 -0.0681611 4.47813 0.011995 4.91041L6.88939 42.048L5.37177 50.2443C6.30628 52.0522 7.39913 53.7737 8.6375 55.3886L11.1083 42.048L4.18307 4.65447C4.15328 4.49294 4.06784 4.34696 3.9416 4.24188C3.81535 4.13681 3.65615 4.07929 3.4919 4.07932ZM71.2967 4.07932H68.5078C68.3435 4.07929 68.1845 4.13681 68.0582 4.24188C67.932 4.34696 67.8465 4.49294 67.8168 4.65447L60.8921 42.048L63.3623 55.3935C64.6009 53.7782 65.6939 52.0563 66.6286 50.2481L65.1109 42.048L71.9877 4.91041C72.0678 4.47813 71.7361 4.07932 71.2967 4.07932ZM33.8905 68.8425C34.5887 68.8847 35.2911 68.9062 35.9998 68.9062C36.7086 68.9062 37.411 68.8848 38.1092 68.8429V23.7669H33.8905V68.8425Z" fill="#994122"/>
<path d="M42.1885 6.89069C43.7414 6.89069 45.001 8.1497 45.001 9.70319C45.001 11.2567 43.7414 12.5157 42.1885 12.5157C40.635 12.5157 39.376 11.2567 39.376 9.70319C39.376 8.1497 40.635 6.89069 42.1885 6.89069ZM29.5322 11.8126C29.5322 13.7545 31.106 15.3282 33.0479 15.3282C34.989 15.3282 36.5635 13.7545 36.5635 11.8126C36.5635 9.87123 34.989 8.29694 33.0479 8.29694C31.106 8.29694 29.5322 9.87123 29.5322 11.8126Z" fill="#0AB59E"/>
<path d="M37.9697 6.89069C40.2993 6.89069 42.1885 8.77928 42.1885 11.1094C42.1885 13.4396 40.2993 15.3282 37.9697 15.3282C35.6396 15.3282 33.751 13.4396 33.751 11.1094C33.751 8.77928 35.6396 6.89069 37.9697 6.89069Z" fill="#0ED1B2"/>
<path d="M44.1572 13.9219L42.751 19.5469H31.501L30.0947 13.9219H44.1572Z" fill="#C92E43"/>
<path d="M44.1572 13.9219L42.751 19.5469H35.2979L33.8916 13.9219H44.1572Z" fill="#E43950"/>
<path d="M42.8916 11.1094C44.0561 11.1094 45.001 12.0537 45.001 13.2188C45.001 14.3839 44.0561 15.3282 42.8916 15.3282C41.7265 15.3282 40.7822 14.3839 40.7822 13.2188C40.7822 12.0537 41.7265 11.1094 42.8916 11.1094ZM33.751 13.9219C33.751 14.6986 34.3804 15.3282 35.1572 15.3282C35.9335 15.3282 36.5635 14.6986 36.5635 13.9219C36.5635 13.1453 35.9335 12.5157 35.1572 12.5157C34.3804 12.5157 33.751 13.1453 33.751 13.9219Z" fill="#0ED1B2"/>
<path d="M34.4541 5.48444C35.6186 5.48444 36.5635 6.42873 36.5635 7.59381C36.5635 8.75889 35.6186 9.70319 34.4541 9.70319C33.289 9.70319 32.3447 8.75889 32.3447 7.59381C32.3447 6.42873 33.289 5.48444 34.4541 5.48444ZM28.126 13.2188C28.126 14.3839 29.0703 15.3282 30.2354 15.3282C31.3999 15.3282 32.3447 14.3839 32.3447 13.2188C32.3447 12.0537 31.3999 11.1094 30.2354 11.1094C29.0703 11.1094 28.126 12.0537 28.126 13.2188Z" fill="#0AB59E"/>
<path d="M36.5635 5.26196C37.3397 5.26196 37.9697 5.89154 37.9697 6.66821C37.9697 7.44488 37.3397 8.07446 36.5635 8.07446C35.7867 8.07446 35.1572 7.44488 35.1572 6.66821C35.1572 5.89154 35.7867 5.26196 36.5635 5.26196ZM32.3447 10.887C32.3447 11.6636 32.9742 12.2932 33.751 12.2932C34.5272 12.2932 35.1572 11.6636 35.1572 10.887C35.1572 10.1103 34.5272 9.48071 33.751 9.48071C32.9742 9.48071 32.3447 10.1103 32.3447 10.887Z" fill="#FDCDC7"/>
<path d="M40.7822 6.89069C41.5585 6.89069 42.1885 7.52026 42.1885 8.29694C42.1885 9.07361 41.5585 9.70319 40.7822 9.70319C40.0054 9.70319 39.376 9.07361 39.376 8.29694C39.376 7.52026 40.0054 6.89069 40.7822 6.89069Z" fill="#FC544D"/>
<path d="M23.9082 43.4531H7.0332C6.25639 43.4531 5.62695 42.8235 5.62695 42.0469V40.4539C5.62685 40.1153 5.74893 39.7881 5.97074 39.5324C6.19256 39.2767 6.49921 39.1096 6.83436 39.0618L19.7454 37.2172C22.6849 36.7976 25.3145 39.0777 25.3145 42.0469C25.3145 42.8235 24.6845 43.4531 23.9082 43.4531ZM48.0957 43.4531H64.9707C65.747 43.4531 66.377 42.8235 66.377 42.0469V40.4539C66.3769 40.1154 66.2548 39.7882 66.033 39.5325C65.8112 39.2768 65.5046 39.1097 65.1695 39.0618L52.2578 37.2172C49.319 36.7976 46.6895 39.0777 46.6895 42.0469C46.6895 42.8235 47.3189 43.4531 48.0957 43.4531Z" fill="#E43950"/>
<path d="M25.2568 41.3016H11.252C10.4751 41.3016 9.8457 40.672 9.8457 39.8953V38.6318L19.7454 37.2173C22.4332 36.8333 24.8601 38.7082 25.2568 41.3014V41.3016ZM65.1695 39.0618L52.2578 37.2173C51.9931 37.1795 51.7259 37.1634 51.4586 37.169C50.9351 37.9429 50.627 38.8785 50.627 39.8952C50.627 40.6714 51.2564 41.3014 52.0332 41.3014H66.377V40.4539C66.3769 40.1154 66.2548 39.7883 66.033 39.5325C65.8112 39.2768 65.5046 39.1097 65.1695 39.0618Z" fill="#EA5569"/>
<path d="M53.9955 20.2287L57.7034 34.1313C57.8221 34.5779 57.4858 35.0157 57.0239 35.0157H14.9644C14.5068 35.0157 14.1712 34.586 14.282 34.1424L17.7499 20.2708C17.9021 19.6624 18.2533 19.1222 18.7477 18.7363C19.2421 18.3503 19.8513 18.1407 20.4785 18.1407H51.2782C51.898 18.1406 52.5003 18.3453 52.9917 18.7229C53.4832 19.1005 53.8361 19.6298 53.9957 20.2287H53.9955Z" fill="#FDE5BD"/>
<path d="M34.3687 28.8429C34.2578 29.952 33.3212 30.7948 32.2066 30.7882C32.1881 30.7876 32.1686 30.7876 32.1495 30.7876C31.6243 30.7845 31.1183 30.59 30.7261 30.2407C30.3339 29.8914 30.0824 29.4111 30.0188 28.8897L29.4765 24.4561C29.464 24.3536 29.4314 24.2546 29.3805 24.1648C29.3297 24.0749 29.2617 23.9959 29.1803 23.9324C29.0989 23.8688 29.0059 23.8219 28.9064 23.7943C28.8069 23.7668 28.7029 23.7591 28.6004 23.7717C28.2292 23.8161 27.9495 24.1331 27.9121 24.5051L27.4649 28.9775C27.4133 29.495 26.8383 29.7768 26.3943 29.506C23.2111 27.5642 21.3951 23.6953 22.3844 19.7386C22.3844 18.8564 23.0996 18.1407 23.9819 18.1407H51.2856C51.9054 18.1407 52.5078 18.3455 52.9992 18.723C53.4907 19.1006 53.8437 19.6299 54.0035 20.2287L56.8216 30.7969H53.4293C52.3379 30.7969 51.4178 29.9827 51.2848 28.899L50.5701 23.0499C50.5576 22.9474 50.525 22.8484 50.4741 22.7585C50.4233 22.6687 50.3553 22.5897 50.2739 22.5261C50.1925 22.4626 50.0995 22.4157 50 22.3881C49.9005 22.3605 49.7965 22.3528 49.694 22.3655C49.3228 22.4099 49.0425 22.7269 49.0057 23.0981L48.4305 28.8518C48.3204 29.956 47.3909 30.7969 46.2813 30.7969H46.2265C45.135 30.7969 44.2149 29.9827 44.0825 28.899L43.5392 24.4561C43.5266 24.3536 43.494 24.2546 43.4432 24.1648C43.3923 24.0749 43.3243 23.9959 43.2429 23.9324C43.1616 23.8688 43.0685 23.8219 42.969 23.7943C42.8695 23.7668 42.7655 23.7591 42.6631 23.7717C42.2918 23.8161 42.0121 24.1331 41.9747 24.5044L41.5402 28.8518C41.4298 29.956 40.5003 30.7969 39.3907 30.7969H39.3671C38.2757 30.7969 37.3556 29.9827 37.2231 28.899L36.5124 23.0824C36.4667 22.7121 36.1817 22.4017 35.8108 22.3638C35.7079 22.3529 35.6038 22.3625 35.5046 22.392C35.4054 22.4215 35.3129 22.4704 35.2327 22.5357C35.1524 22.601 35.0858 22.6816 35.0367 22.7728C34.9877 22.8639 34.9571 22.9639 34.9468 23.0669L34.3687 28.8429Z" fill="#FFF5F5"/>
</svg>
