<svg width="54" height="55" viewBox="0 0 54 55" fill="none" xmlns="http://www.w3.org/2000/svg">
<rect y="0.5" width="54" height="54" rx="12" fill="#40DD96" fill-opacity="0.2"/>
<path d="M30.24 37.77H30.11C25.67 37.77 23.53 36.02 23.16 32.1C23.12 31.69 23.42 31.32 23.84 31.28C24.24 31.24 24.62 31.55 24.66 31.96C24.95 35.1 26.43 36.27 30.12 36.27H30.25C34.32 36.27 35.76 34.83 35.76 30.76V24.24C35.76 20.17 34.32 18.73 30.25 18.73H30.12C26.41 18.73 24.93 19.92 24.66 23.12C24.61 23.53 24.26 23.84 23.84 23.8C23.42 23.77 23.12 23.4 23.15 22.99C23.49 19.01 25.64 17.23 30.11 17.23H30.24C35.15 17.23 37.25 19.33 37.25 24.24V30.76C37.25 35.67 35.15 37.77 30.24 37.77Z" fill="#40DD96"/>
<path d="M30.0001 28.25H18.6201C18.2101 28.25 17.8701 27.91 17.8701 27.5C17.8701 27.09 18.2101 26.75 18.6201 26.75H30.0001C30.4101 26.75 30.7501 27.09 30.7501 27.5C30.7501 27.91 30.4101 28.25 30.0001 28.25Z" fill="#40DD96"/>
<path d="M20.8499 31.6001C20.6599 31.6001 20.4699 31.5301 20.3199 31.3801L16.9699 28.0301C16.6799 27.7401 16.6799 27.2601 16.9699 26.9701L20.3199 23.6201C20.6099 23.3301 21.0899 23.3301 21.3799 23.6201C21.6699 23.9101 21.6699 24.3901 21.3799 24.6801L18.5599 27.5001L21.3799 30.3201C21.6699 30.6101 21.6699 31.0901 21.3799 31.3801C21.2399 31.5301 21.0399 31.6001 20.8499 31.6001Z" fill="#40DD96"/>
</svg>
