<svg width="54" height="55" viewBox="0 0 54 55" fill="none" xmlns="http://www.w3.org/2000/svg">
<rect y="0.5" width="54" height="54" rx="12" fill="#40DD96" fill-opacity="0.2"/>
<path d="M27 26.0199C26.59 26.0199 26.25 25.6799 26.25 25.2699V21.9399C26.25 21.5299 26.59 21.1899 27 21.1899C27.41 21.1899 27.75 21.5299 27.75 21.9399V25.2699C27.75 25.6899 27.41 26.0199 27 26.0199Z" fill="#40DD96"/>
<path d="M27.0201 35.8502C24.4401 35.8502 21.8701 35.4402 19.4201 34.6202C18.5101 34.3202 17.8201 33.6702 17.5201 32.8502C17.2201 32.0302 17.3201 31.0902 17.8101 30.2702L19.0801 28.1502C19.3601 27.6802 19.6101 26.8002 19.6101 26.2502V24.1502C19.6101 20.0602 22.9301 16.7402 27.0201 16.7402C31.1101 16.7402 34.4301 20.0602 34.4301 24.1502V26.2502C34.4301 26.7902 34.6801 27.6802 34.9601 28.1502L36.2301 30.2702C36.7001 31.0502 36.7801 31.9802 36.4701 32.8302C36.1601 33.6802 35.4801 34.3302 34.6201 34.6202C32.1701 35.4502 29.6001 35.8502 27.0201 35.8502ZM27.0201 18.2502C23.7601 18.2502 21.1101 20.9002 21.1101 24.1602V26.2602C21.1101 27.0702 20.7901 28.2402 20.3701 28.9302L19.1001 31.0602C18.8401 31.4902 18.7801 31.9502 18.9301 32.3502C19.0801 32.7502 19.4201 33.0502 19.9001 33.2102C24.5001 34.7402 29.5601 34.7402 34.1601 33.2102C34.5901 33.0702 34.9201 32.7502 35.0701 32.3302C35.2301 31.9102 35.1801 31.4502 34.9501 31.0602L33.6801 28.9402C33.2601 28.2502 32.9401 27.0802 32.9401 26.2702V24.1702C32.9301 20.9002 30.2801 18.2502 27.0201 18.2502Z" fill="#40DD96"/>
<path d="M26.9999 38.3998C25.9299 38.3998 24.8799 37.9598 24.1199 37.1998C23.3599 36.4398 22.9199 35.3898 22.9199 34.3198H24.4199C24.4199 34.9998 24.6999 35.6598 25.1799 36.1398C25.6599 36.6198 26.3199 36.8998 26.9999 36.8998C28.4199 36.8998 29.5799 35.7398 29.5799 34.3198H31.0799C31.0799 36.5698 29.2499 38.3998 26.9999 38.3998Z" fill="#40DD96"/>
</svg>
