<svg width="54" height="55" viewBox="0 0 54 55" fill="none" xmlns="http://www.w3.org/2000/svg">
<rect y="0.5" width="54" height="54" rx="12" fill="#40DD96" fill-opacity="0.2"/>
<path d="M27.9998 30.25H26.9998C26.5898 30.25 26.2498 29.91 26.2498 29.5C26.2498 29.09 26.5898 28.75 26.9998 28.75H27.9998C28.6898 28.75 29.2498 28.19 29.2498 27.5V18.25H20.9998C19.8198 18.25 18.7398 18.89 18.1598 19.92C17.9598 20.28 17.4998 20.41 17.1398 20.21C16.7798 20.01 16.6498 19.55 16.8498 19.19C17.6898 17.69 19.2798 16.75 20.9998 16.75H29.9998C30.4098 16.75 30.7498 17.09 30.7498 17.5V27.5C30.7498 29.02 29.5198 30.25 27.9998 30.25Z" fill="#40DD96"/>
<path d="M34 36.25H33C32.59 36.25 32.25 35.91 32.25 35.5C32.25 34.81 31.69 34.25 31 34.25C30.31 34.25 29.75 34.81 29.75 35.5C29.75 35.91 29.41 36.25 29 36.25H25C24.59 36.25 24.25 35.91 24.25 35.5C24.25 34.81 23.69 34.25 23 34.25C22.31 34.25 21.75 34.81 21.75 35.5C21.75 35.91 21.41 36.25 21 36.25H20C17.93 36.25 16.25 34.57 16.25 32.5C16.25 32.09 16.59 31.75 17 31.75C17.41 31.75 17.75 32.09 17.75 32.5C17.75 33.74 18.76 34.75 20 34.75H20.35C20.68 33.6 21.74 32.75 23 32.75C24.26 32.75 25.32 33.6 25.65 34.75H28.36C28.69 33.6 29.75 32.75 31.01 32.75C32.27 32.75 33.33 33.6 33.66 34.75H34C35.24 34.75 36.25 33.74 36.25 32.5V30.25H34C33.04 30.25 32.25 29.46 32.25 28.5V25.5C32.25 24.54 33.03 23.75 34 23.75L32.93 21.88C32.71 21.49 32.29 21.25 31.84 21.25H30.75V27.5C30.75 29.02 29.52 30.25 28 30.25H27C26.59 30.25 26.25 29.91 26.25 29.5C26.25 29.09 26.59 28.75 27 28.75H28C28.69 28.75 29.25 28.19 29.25 27.5V20.5C29.25 20.09 29.59 19.75 30 19.75H31.84C32.83 19.75 33.74 20.28 34.23 21.14L35.94 24.13C36.07 24.36 36.07 24.65 35.94 24.88C35.81 25.11 35.56 25.25 35.29 25.25H34C33.86 25.25 33.75 25.36 33.75 25.5V28.5C33.75 28.64 33.86 28.75 34 28.75H37C37.41 28.75 37.75 29.09 37.75 29.5V32.5C37.75 34.57 36.07 36.25 34 36.25Z" fill="#40DD96"/>
<path d="M23 38.25C21.48 38.25 20.25 37.02 20.25 35.5C20.25 33.98 21.48 32.75 23 32.75C24.52 32.75 25.75 33.98 25.75 35.5C25.75 37.02 24.52 38.25 23 38.25ZM23 34.25C22.31 34.25 21.75 34.81 21.75 35.5C21.75 36.19 22.31 36.75 23 36.75C23.69 36.75 24.25 36.19 24.25 35.5C24.25 34.81 23.69 34.25 23 34.25Z" fill="#40DD96"/>
<path d="M31 38.25C29.48 38.25 28.25 37.02 28.25 35.5C28.25 33.98 29.48 32.75 31 32.75C32.52 32.75 33.75 33.98 33.75 35.5C33.75 37.02 32.52 38.25 31 38.25ZM31 34.25C30.31 34.25 29.75 34.81 29.75 35.5C29.75 36.19 30.31 36.75 31 36.75C31.69 36.75 32.25 36.19 32.25 35.5C32.25 34.81 31.69 34.25 31 34.25Z" fill="#40DD96"/>
<path d="M37 30.25H34C33.04 30.25 32.25 29.46 32.25 28.5V25.5C32.25 24.54 33.04 23.75 34 23.75H35.29C35.56 23.75 35.81 23.89 35.94 24.13L37.65 27.13C37.71 27.24 37.75 27.37 37.75 27.5V29.5C37.75 29.91 37.41 30.25 37 30.25ZM34 25.25C33.86 25.25 33.75 25.36 33.75 25.5V28.5C33.75 28.64 33.86 28.75 34 28.75H36.25V27.7L34.85 25.25H34Z" fill="#40DD96"/>
<path d="M23 24.25H17C16.59 24.25 16.25 23.91 16.25 23.5C16.25 23.09 16.59 22.75 17 22.75H23C23.41 22.75 23.75 23.09 23.75 23.5C23.75 23.91 23.41 24.25 23 24.25Z" fill="#40DD96"/>
<path d="M21 27.25H17C16.59 27.25 16.25 26.91 16.25 26.5C16.25 26.09 16.59 25.75 17 25.75H21C21.41 25.75 21.75 26.09 21.75 26.5C21.75 26.91 21.41 27.25 21 27.25Z" fill="#40DD96"/>
<path d="M19 30.25H17C16.59 30.25 16.25 29.91 16.25 29.5C16.25 29.09 16.59 28.75 17 28.75H19C19.41 28.75 19.75 29.09 19.75 29.5C19.75 29.91 19.41 30.25 19 30.25Z" fill="#40DD96"/>
</svg>
