<svg width="44" height="45" viewBox="0 0 44 45" fill="none" xmlns="http://www.w3.org/2000/svg">
<path d="M27 32.8042H17C12.59 32.8042 11.25 31.4642 11.25 27.0542V25.0542C11.25 20.6442 12.59 19.3042 17 19.3042H27C31.41 19.3042 32.75 20.6442 32.75 25.0542V27.0542C32.75 31.4642 31.41 32.8042 27 32.8042ZM17 20.8042C13.42 20.8042 12.75 21.4842 12.75 25.0542V27.0542C12.75 30.6242 13.42 31.3042 17 31.3042H27C30.58 31.3042 31.25 30.6242 31.25 27.0542V25.0542C31.25 21.4842 30.58 20.8042 27 20.8042H17Z" fill="#020202"/>
<path d="M16 20.8042C15.59 20.8042 15.25 20.4642 15.25 20.0542V18.0542C15.25 15.1542 15.95 11.3042 22 11.3042C26.48 11.3042 28.75 13.2342 28.75 17.0542C28.75 17.4642 28.41 17.8042 28 17.8042C27.59 17.8042 27.25 17.4642 27.25 17.0542C27.25 15.0742 26.65 12.8042 22 12.8042C17.64 12.8042 16.75 14.9042 16.75 18.0542V20.0542C16.75 20.4642 16.41 20.8042 16 20.8042Z" fill="#020202"/>
<path d="M22 29.3042C20.21 29.3042 18.75 27.8442 18.75 26.0542C18.75 24.2642 20.21 22.8042 22 22.8042C23.79 22.8042 25.25 24.2642 25.25 26.0542C25.25 27.8442 23.79 29.3042 22 29.3042ZM22 24.3042C21.04 24.3042 20.25 25.0942 20.25 26.0542C20.25 27.0142 21.04 27.8042 22 27.8042C22.96 27.8042 23.75 27.0142 23.75 26.0542C23.75 25.0942 22.96 24.3042 22 24.3042Z" fill="#020202"/>
</svg>
