<svg width="24" height="25" viewBox="0 0 24 25" fill="none" xmlns="http://www.w3.org/2000/svg">
<path d="M15.65 21.91C15.22 21.91 14.79 21.82 14.44 21.65L9.19004 19.02C8.89004 18.87 8.30004 18.88 8.01004 19.05L5.65004 20.4C4.63004 20.98 3.58004 21.06 2.79004 20.59C1.99004 20.13 1.54004 19.19 1.54004 18.01V8.28997C1.54004 7.37997 2.14004 6.34997 2.93004 5.89997L7.26004 3.41997C7.99004 2.99997 9.10004 2.96997 9.85004 3.34997L15.1 5.97997C15.4 6.12997 15.98 6.10997 16.28 5.94997L18.63 4.60997C19.65 4.02997 20.7 3.94997 21.49 4.41997C22.29 4.87997 22.74 5.81997 22.74 6.99997V16.73C22.74 17.64 22.14 18.67 21.35 19.12L17.02 21.6C16.64 21.8 16.14 21.91 15.65 21.91ZM8.64004 17.42C9.07004 17.42 9.50004 17.51 9.85004 17.68L15.1 20.31C15.4 20.46 15.98 20.44 16.28 20.28L20.61 17.8C20.93 17.62 21.24 17.08 21.24 16.72V6.98997C21.24 6.35997 21.06 5.88997 20.73 5.70997C20.41 5.52997 19.91 5.59997 19.37 5.90997L17.02 7.24997C16.29 7.66997 15.18 7.69997 14.43 7.31997L9.18004 4.68997C8.88004 4.53997 8.30004 4.55997 8.00004 4.71997L3.67004 7.19997C3.35004 7.37997 3.04004 7.91997 3.04004 8.28997V18.02C3.04004 18.65 3.22004 19.12 3.54004 19.3C3.86004 19.49 4.36004 19.41 4.91004 19.1L7.26004 17.76C7.65004 17.53 8.15004 17.42 8.64004 17.42Z" fill="#40DD96"/>
<path d="M8.56006 18.25C8.15006 18.25 7.81006 17.91 7.81006 17.5V4.5C7.81006 4.09 8.15006 3.75 8.56006 3.75C8.97006 3.75 9.31006 4.09 9.31006 4.5V17.5C9.31006 17.91 8.97006 18.25 8.56006 18.25Z" fill="#40DD96"/>
<path d="M15.73 21.25C15.32 21.25 14.98 20.91 14.98 20.5V7.12C14.98 6.71 15.32 6.37 15.73 6.37C16.14 6.37 16.48 6.71 16.48 7.12V20.5C16.48 20.91 16.14 21.25 15.73 21.25Z" fill="#40DD96"/>
</svg>
