<svg width="22" height="22" viewBox="0 0 22 22" fill="none" xmlns="http://www.w3.org/2000/svg">
<path d="M16.5 19.25C16.5 17.3051 15.7274 15.4398 14.3521 14.0646C12.9768 12.6893 11.1116 11.9167 9.16665 11.9167M9.16665 11.9167C7.22173 11.9167 5.35646 12.6893 3.9812 14.0646C2.60593 15.4398 1.83331 17.3051 1.83331 19.25M9.16665 11.9167C11.698 11.9167 13.75 9.86464 13.75 7.33333C13.75 4.80203 11.698 2.75 9.16665 2.75C6.63534 2.75 4.58331 4.80203 4.58331 7.33333C4.58331 9.86464 6.63534 11.9167 9.16665 11.9167ZM20.1667 18.3333C20.1667 15.2441 18.3334 12.375 16.5 11C17.1027 10.5478 17.5845 9.95412 17.903 9.27137C18.2215 8.58862 18.3668 7.83788 18.326 7.08561C18.2853 6.33333 18.0597 5.6027 17.6692 4.95839C17.2788 4.31408 16.7355 3.77595 16.0875 3.39162" stroke="#EF6320" stroke-width="2" stroke-linecap="round" stroke-linejoin="round"/>
</svg>
