<svg width="20" height="20" viewBox="0 0 20 20" fill="none" xmlns="http://www.w3.org/2000/svg">
<path d="M13.3333 3.33332H15C15.442 3.33332 15.8659 3.50892 16.1785 3.82148C16.4911 4.13404 16.6666 4.55796 16.6666 4.99999V16.6667C16.6666 17.1087 16.4911 17.5326 16.1785 17.8452C15.8659 18.1577 15.442 18.3333 15 18.3333H10.4166M3.33331 11.25V4.99999C3.33331 4.55796 3.50891 4.13404 3.82147 3.82148C4.13403 3.50892 4.55795 3.33332 4.99998 3.33332H6.66665M7.49998 1.66666H12.5C12.9602 1.66666 13.3333 2.03975 13.3333 2.49999V4.16666C13.3333 4.62689 12.9602 4.99999 12.5 4.99999H7.49998C7.03974 4.99999 6.66665 4.62689 6.66665 4.16666V2.49999C6.66665 2.03975 7.03974 1.66666 7.49998 1.66666ZM8.66665 10.5001C8.99817 10.1685 9.4478 9.98229 9.91665 9.98229C10.3855 9.98229 10.8351 10.1685 11.1666 10.5001C11.4982 10.8316 11.6844 11.2812 11.6844 11.7501C11.6844 12.2189 11.4982 12.6685 11.1666 13.0001L6.66665 17.5001L3.33331 18.3334L4.16665 15.0001L8.66665 10.5001Z" stroke="#CFDCE8" stroke-width="1.5" stroke-linecap="round" stroke-linejoin="round"/>
</svg>
