<svg width="22" height="22" viewBox="0 0 22 22" fill="none" xmlns="http://www.w3.org/2000/svg">
<g clip-path="url(#clip0_815_124740)">
<path d="M3.66671 5.49999L11 1.83333L18.3334 5.49999M16.5 9.16666L20.1667 11V18.3333C20.1667 18.8196 19.9736 19.2859 19.6297 19.6297C19.2859 19.9735 18.8196 20.1667 18.3334 20.1667H3.66671C3.18048 20.1667 2.71416 19.9735 2.37034 19.6297C2.02653 19.2859 1.83337 18.8196 1.83337 18.3333V11L5.50004 9.16666M12.8334 20.1667V16.5C12.8334 16.0138 12.6402 15.5474 12.2964 15.2036C11.9526 14.8598 11.4863 14.6667 11 14.6667C10.5138 14.6667 10.0475 14.8598 9.70368 15.2036C9.35986 15.5474 9.16671 16.0138 9.16671 16.5V20.1667M16.5 4.58333V20.1667M5.50004 4.58333V20.1667M12.8334 8.24999C12.8334 9.26252 12.0126 10.0833 11 10.0833C9.98752 10.0833 9.16671 9.26252 9.16671 8.24999C9.16671 7.23747 9.98752 6.41666 11 6.41666C12.0126 6.41666 12.8334 7.23747 12.8334 8.24999Z" stroke="#EF6320" stroke-width="2" stroke-linecap="round" stroke-linejoin="round"/>
</g>
<defs>
<clipPath id="clip0_815_124740">
<rect width="22" height="22" fill="white"/>
</clipPath>
</defs>
</svg>
