<svg width="53" height="52" viewBox="0 0 53 52" fill="none" xmlns="http://www.w3.org/2000/svg">
<path fill-rule="evenodd" clip-rule="evenodd" d="M5.11045 3.91015C5.01967 3.93338 4.89672 3.97755 4.8372 4.00831C4.64935 4.10541 4.4102 4.38175 4.33106 4.59312L4.25781 4.78886L4.26011 8.52327C4.26178 11.2851 4.27284 12.2879 4.30251 12.3738C4.46154 12.8335 4.84014 13.121 5.32328 13.1489C5.53122 13.1609 5.61884 13.149 5.78451 13.0865C6.04304 12.9891 6.31402 12.739 6.42366 12.4967L6.50416 12.3187L6.52268 6.14312L9.57689 6.14274C12.841 6.14236 12.7976 6.14445 13.0711 5.97485C13.3503 5.80176 13.5674 5.44844 13.5973 5.11831C13.6426 4.61902 13.3404 4.13206 12.8779 3.95907C12.6871 3.8877 12.6513 3.88695 8.98039 3.87747C6.12683 3.87008 5.23754 3.87761 5.11045 3.91015ZM40.1779 3.9161C39.9562 3.99192 39.7141 4.18697 39.5842 4.39424C39.2319 4.95678 39.4584 5.71424 40.0653 6.00239L40.2535 6.09179L46.4318 6.10996V9.14826C46.4318 11.7577 46.4391 12.2111 46.4834 12.3604C46.6832 13.033 47.4143 13.3703 48.0458 13.0812C48.3886 12.9243 48.6191 12.6197 48.6916 12.2277C48.7144 12.1043 48.7234 10.7721 48.7173 8.39798L48.708 4.75745L48.6283 4.56031C48.5317 4.32109 48.2941 4.06777 48.0576 3.95182L47.8865 3.86789L44.1213 3.8615C40.5892 3.85551 40.3452 3.8589 40.1779 3.9161ZM10.0982 21.796L15.609 21.8053C18.6399 21.8105 21.1545 21.8063 21.1969 21.7961L21.274 21.7775L21.2567 10.6422L10.0808 10.6249L10.0982 21.796ZM25.8152 10.6475C25.8024 10.6603 25.792 11.2532 25.792 11.9652V13.2596H23.1906V18.3575H25.792V20.9227L23.1735 20.9406L23.1555 23.5233L17.9365 23.5409L17.9186 26.1475L17.3285 26.1699C17.004 26.1822 16.4268 26.1923 16.0458 26.1923L15.3531 26.1924L15.3351 23.5751L12.7166 23.5571V26.1574L10.0982 26.1753L10.0796 27.4926H12.7166V26.2266H15.3009V27.4755L17.9878 27.4933V26.2266H23.1564V27.4926H25.8262V26.1582H23.2248V23.5922H28.3933V27.4926H31.0979L31.0803 23.5409L28.4618 23.5229V18.3575H31.0639L31.046 15.7059L28.4275 15.688V18.3341L27.7546 18.3115C27.3845 18.2992 26.8069 18.289 26.471 18.289H25.8604V13.328H28.4626L28.4447 10.6422L27.1415 10.6333C26.4248 10.6283 25.8279 10.6348 25.8152 10.6475ZM32.5093 10.6476C32.4753 10.6615 32.4665 11.8119 32.4665 16.239V21.8131H43.6595L43.6421 10.6422L38.0971 10.6362C35.0473 10.6329 32.5329 10.6381 32.5093 10.6476ZM12.7509 19.1448L18.5351 19.1273L18.539 13.3451L12.7509 13.3277V19.1448ZM35.1706 19.1444H40.9894V13.328H35.1706V19.1444ZM14.3254 17.5363H16.9593L16.9687 16.2619C16.9739 15.5609 16.9733 14.9759 16.9675 14.9617C16.9617 14.9476 16.3649 14.9361 15.6412 14.9361H14.3254V17.5363ZM36.7679 14.9589C36.7554 14.9714 36.7451 15.5565 36.7451 16.259V17.5363H39.3807V14.9361H38.0857C37.3735 14.9361 36.7804 14.9463 36.7679 14.9589ZM36.2317 26.1924H33.6645V27.4926H36.3343V26.2618L38.5849 26.2528C39.8226 26.2478 40.8701 26.2487 40.9124 26.2547C40.989 26.2656 40.9894 26.2689 40.9894 26.8791V27.4926H43.6592V26.0898H41.0237V23.558H36.2317V26.1924ZM6.89779 28.6758C6.23335 28.851 5.71478 29.3642 5.54539 30.0142C5.50462 30.1706 5.49442 30.4668 5.49442 31.492C5.49442 32.9209 5.50596 33.0198 5.71958 33.422C5.93765 33.8325 6.33569 34.1515 6.81403 34.2992C7.02581 34.3646 7.12757 34.3695 8.25341 34.3695H9.46493L9.46791 35.165C9.46955 35.6025 9.48318 36.6379 9.49824 37.4659C9.52302 38.8319 9.53226 38.9977 9.59794 39.2559C9.88762 40.3942 10.8097 41.276 11.9465 41.5017C12.1946 41.5509 13.5991 41.5551 26.9044 41.5462C40.8686 41.5369 41.5985 41.5335 41.7938 41.4755C41.9067 41.442 42.171 41.3302 42.3809 41.2269C43.119 40.864 43.6764 40.2091 43.9127 39.4272C44.0307 39.0367 44.072 38.6515 44.0528 38.1205C44.0439 37.8734 44.0288 36.9283 44.0191 36.0204L44.0017 34.3695H44.8879C45.6911 34.3695 45.7962 34.3628 46.0089 34.2977C46.6148 34.1121 47.0588 33.6693 47.2747 33.0352C47.3331 32.8638 47.3388 32.7265 47.3388 31.4956C47.3388 30.2604 47.3333 30.128 47.2742 29.956C47.0429 29.2822 46.5739 28.8406 45.9161 28.6774C45.7098 28.6262 44.1186 28.6218 26.3888 28.6239C9.63457 28.6258 7.0612 28.6327 6.89779 28.6758ZM7.19339 30.2734C7.09149 30.3478 7.07058 30.5576 7.06993 31.5127C7.06931 32.4688 7.09125 32.666 7.2051 32.7269C7.24853 32.7501 13.5759 32.7615 26.4376 32.7615H45.6053L45.6762 32.6713C45.7446 32.5846 45.7472 32.5417 45.7472 31.5235C45.7472 30.416 45.7337 30.3054 45.5916 30.2509C45.5612 30.2392 36.9225 30.2297 26.3947 30.2297C10.9214 30.2297 7.24172 30.2381 7.19339 30.2734ZM11.3161 36.2257C11.3176 36.8325 11.3301 37.6755 11.3439 38.0989C11.3682 38.8429 11.3721 38.8747 11.4609 39.047C11.6438 39.4022 11.9004 39.6084 12.2666 39.6946C12.4258 39.732 14.9908 39.7402 26.7859 39.7406C42.6989 39.7412 41.3371 39.7623 41.7057 39.5093C41.8078 39.4392 41.9424 39.3073 42.0048 39.2162C42.2288 38.8888 42.2281 38.8974 42.2015 36.9099L42.1776 35.1223H11.3133L11.3161 36.2257ZM5.23199 38.837C4.98007 38.8887 4.91165 38.9223 4.6996 39.0984C4.59185 39.1879 4.50056 39.3086 4.42577 39.4605L4.31354 39.6884V47.2853L4.40417 47.4785C4.51959 47.7246 4.72976 47.9347 4.97593 48.05L5.16925 48.1406H12.7338L12.8991 48.0644C13.2556 47.8999 13.4859 47.6286 13.5713 47.2724C13.6595 46.905 13.5577 46.5406 13.2857 46.2499C13.097 46.0482 12.8889 45.94 12.6058 45.8964C12.4768 45.8765 11.2374 45.8671 9.49146 45.8729L6.59145 45.8825L6.57262 39.6898L6.47305 39.4743C6.30923 39.1197 5.95469 38.8606 5.56288 38.8093C5.49699 38.8007 5.34809 38.8131 5.23199 38.837ZM47.2875 38.8151C46.9891 38.9062 46.6924 39.1687 46.5571 39.4614C46.4832 39.6211 46.4831 39.6265 46.4738 42.7086L46.4646 45.7959L40.2535 45.8141L40.0602 45.9047C39.8133 46.0204 39.6032 46.2308 39.4896 46.4762C39.4186 46.6298 39.4001 46.7224 39.3995 46.9277C39.3981 47.3743 39.6296 47.7369 40.0545 47.9538L40.2193 48.038L43.9844 48.0478C46.8689 48.0554 47.7856 48.0479 47.9036 48.0159C48.2612 47.9188 48.558 47.6421 48.6803 47.2915C48.7385 47.1247 48.7422 46.8944 48.7422 43.402V39.6898L48.6621 39.4915C48.5514 39.2172 48.2892 38.9539 48.0305 38.8572C47.8274 38.7812 47.4658 38.7607 47.2875 38.8151Z" fill="#EF6320"/>
<path d="M46.2539 29.4531H6.49219V33.5664L10.6055 34.0234V39.1523L12.7383 40.9297H39.7031L43.3086 39.6094V33.5664H46.2539V29.4531Z" fill="#EF6320"/>
<mask id="mask0_381_98441" style="mask-type:alpha" maskUnits="userSpaceOnUse" x="4" y="3" width="45" height="46">
<path fill-rule="evenodd" clip-rule="evenodd" d="M5.11045 3.91015C5.01967 3.93338 4.89672 3.97755 4.8372 4.00831C4.64935 4.10541 4.4102 4.38175 4.33106 4.59312L4.25781 4.78886L4.26011 8.52327C4.26178 11.2851 4.27284 12.2879 4.30251 12.3738C4.46154 12.8335 4.84014 13.121 5.32328 13.1489C5.53122 13.1609 5.61884 13.149 5.78451 13.0865C6.04304 12.9891 6.31402 12.739 6.42366 12.4967L6.50416 12.3187L6.51344 9.23092L6.52268 6.14312L9.57689 6.14274C12.841 6.14236 12.7976 6.14445 13.0711 5.97485C13.3503 5.80176 13.5674 5.44844 13.5973 5.11831C13.6426 4.61902 13.3404 4.13206 12.8779 3.95907C12.6871 3.8877 12.6513 3.88695 8.98039 3.87747C6.12683 3.87008 5.23754 3.87761 5.11045 3.91015ZM40.1779 3.9161C39.9562 3.99192 39.7141 4.18697 39.5842 4.39424C39.2319 4.95678 39.4584 5.71424 40.0652 6.00239L40.2535 6.09179L43.3426 6.1009L46.4318 6.10996V9.14826C46.4318 11.7577 46.4391 12.2111 46.4834 12.3604C46.6832 13.033 47.4143 13.3703 48.0458 13.0812C48.3886 12.9243 48.6191 12.6197 48.6916 12.2277C48.7144 12.1043 48.7234 10.7721 48.7173 8.39798L48.708 4.75745L48.6283 4.56031C48.5317 4.32109 48.2941 4.06777 48.0576 3.95182L47.8865 3.86789L44.1213 3.8615C40.5892 3.85551 40.3452 3.8589 40.1779 3.9161ZM10.0895 16.2104L10.0982 21.796L15.609 21.8053C18.6399 21.8105 21.1545 21.8063 21.1969 21.7961L21.274 21.7775L21.2653 16.2099L21.2567 10.6422L15.6688 10.6336L10.0808 10.6249L10.0895 16.2104ZM25.8152 10.6475C25.8024 10.6603 25.7919 11.2532 25.7919 11.9652V13.2596H24.4913H23.1906V15.8085V18.3575H24.4913H25.7919V19.6401V20.9227L24.4827 20.9316L23.1735 20.9406L23.1645 22.232L23.1555 23.5233L20.546 23.5321L17.9365 23.5409L17.9275 24.8442L17.9186 26.1475L17.3285 26.1699C17.004 26.1822 16.4268 26.1923 16.0458 26.1923L15.3531 26.1924L15.3441 24.8838L15.3351 23.5751L14.0259 23.5661L12.7166 23.5571V24.8573V26.1574L11.4074 26.1664L10.0982 26.1753L10.0889 26.8339L10.0796 27.4926H11.3981H12.7166V26.8596V26.2266H14.0088H15.3009V26.8511V27.4755L16.6444 27.4844L17.9878 27.4933V26.86V26.2266H20.5721H23.1564V26.8596V27.4926H24.4913H25.8262V26.8254V26.1582H24.5255H23.2248V24.8752V23.5922H25.8091H28.3933V25.5424V27.4926H29.7456H31.0979L31.0891 25.5167L31.0803 23.5409L29.771 23.5319L28.4618 23.5229V20.9402V18.3575H29.7629H31.0639L31.055 17.0317L31.046 15.7059L29.7368 15.6969L28.4275 15.688V17.011V18.3341L27.7546 18.3115C27.3845 18.2992 26.8069 18.289 26.471 18.289H25.8604V15.8085V13.328H27.1615H28.4626L28.4536 11.9851L28.4447 10.6422L27.1415 10.6333C26.4248 10.6283 25.8279 10.6348 25.8152 10.6475ZM32.5093 10.6476C32.4753 10.6615 32.4665 11.8119 32.4665 16.239V21.8131H38.063H43.6595L43.6508 16.2276L43.6421 10.6422L38.0971 10.6362C35.0473 10.6329 32.5329 10.6381 32.5093 10.6476ZM12.7509 16.2362V19.1448L15.643 19.136L18.5351 19.1273L18.537 16.2362L18.539 13.3451L15.6449 13.3364L12.7509 13.3277V16.2362ZM35.1706 16.2362V19.1444H38.08H40.9894V16.2362V13.328H38.08H35.1706V16.2362ZM14.3254 16.2362V17.5363H15.6424H16.9593L16.9687 16.2619C16.9739 15.5609 16.9733 14.9759 16.9675 14.9617C16.9617 14.9476 16.3649 14.9361 15.6412 14.9361H14.3254V16.2362ZM36.7679 14.9589C36.7554 14.9714 36.7451 15.5565 36.7451 16.259V17.5363H38.0629H39.3807V16.2362V14.9361H38.0857C37.3734 14.9361 36.7804 14.9463 36.7679 14.9589ZM36.2317 24.8752V26.1924H34.9481H33.6645V26.8425V27.4926H34.9994H36.3343V26.8772V26.2618L38.5849 26.2528C39.8226 26.2478 40.8701 26.2487 40.9124 26.2547C40.989 26.2655 40.9894 26.2689 40.9894 26.8791V27.4926H42.3243H43.6592V26.7912V26.0898H42.3414H41.0236V24.8239V23.558H38.6277H36.2317V24.8752ZM6.89779 28.6758C6.23335 28.851 5.71478 29.3642 5.54539 30.0142C5.50462 30.1706 5.49442 30.4668 5.49442 31.492C5.49442 32.9209 5.50596 33.0198 5.71958 33.422C5.93765 33.8325 6.33569 34.1515 6.81403 34.2992C7.02581 34.3646 7.12757 34.3695 8.25341 34.3695H9.46493L9.46791 35.165C9.46955 35.6025 9.48318 36.6379 9.49824 37.4659C9.52302 38.8319 9.53226 38.9977 9.59794 39.2559C9.88762 40.3942 10.8097 41.276 11.9465 41.5017C12.1946 41.5509 13.5991 41.5551 26.9044 41.5462C40.8686 41.5369 41.5985 41.5334 41.7938 41.4755C41.9067 41.442 42.171 41.3302 42.3809 41.2269C43.119 40.864 43.6764 40.2091 43.9127 39.4272C44.0307 39.0367 44.072 38.6515 44.0528 38.1205C44.0439 37.8734 44.0288 36.9283 44.0191 36.0204L44.0017 34.3695H44.888C45.6911 34.3695 45.7962 34.3628 46.0089 34.2977C46.6149 34.1121 47.0588 33.6693 47.2747 33.0352C47.3331 32.8638 47.3388 32.7265 47.3388 31.4956C47.3388 30.2604 47.3333 30.128 47.2742 29.956C47.0429 29.2822 46.5739 28.8406 45.9161 28.6774C45.7098 28.6262 44.1186 28.6218 26.3888 28.6239C9.63457 28.6258 7.0612 28.6327 6.89779 28.6758ZM7.19339 30.2734C7.09149 30.3478 7.07058 30.5576 7.06993 31.5127C7.06931 32.4688 7.09125 32.666 7.2051 32.7269C7.24853 32.7501 13.5759 32.7615 26.4376 32.7615H45.6053L45.6762 32.6713C45.7446 32.5846 45.7472 32.5417 45.7472 31.5235C45.7472 30.416 45.7337 30.3054 45.5916 30.2509C45.5612 30.2392 36.9225 30.2297 26.3947 30.2297C10.9214 30.2297 7.24172 30.2381 7.19339 30.2734ZM11.3161 36.2256C11.3176 36.8325 11.3301 37.6755 11.3439 38.0989C11.3682 38.8429 11.3721 38.8747 11.4609 39.047C11.6438 39.4022 11.9004 39.6084 12.2666 39.6946C12.4258 39.732 14.9908 39.7402 26.7859 39.7406C42.6989 39.7412 41.3371 39.7623 41.7057 39.5093C41.8078 39.4392 41.9424 39.3073 42.0048 39.2162C42.2288 38.8888 42.2281 38.8974 42.2015 36.9099L42.1776 35.1223H26.7454H11.3133L11.3161 36.2256ZM5.23199 38.837C4.98007 38.8887 4.91165 38.9223 4.6996 39.0984C4.59185 39.1879 4.50056 39.3086 4.42577 39.4605L4.31354 39.6884V43.4868V47.2853L4.40417 47.4785C4.51959 47.7246 4.72976 47.9347 4.97593 48.05L5.16925 48.1406H8.9515H12.7338L12.8991 48.0644C13.2556 47.8999 13.4859 47.6286 13.5713 47.2724C13.6595 46.905 13.5577 46.5406 13.2857 46.2499C13.097 46.0482 12.8889 45.94 12.6058 45.8964C12.4768 45.8765 11.2374 45.8671 9.49146 45.8729L6.59145 45.8825L6.58203 42.7862L6.57262 39.6898L6.47305 39.4743C6.30923 39.1197 5.95469 38.8606 5.56288 38.8093C5.49699 38.8007 5.34809 38.8131 5.23199 38.837ZM47.2875 38.8151C46.9891 38.9062 46.6924 39.1687 46.5571 39.4614C46.4832 39.6211 46.4831 39.6265 46.4738 42.7086L46.4646 45.7959L43.359 45.805L40.2535 45.8141L40.0602 45.9047C39.8133 46.0204 39.6032 46.2308 39.4896 46.4762C39.4186 46.6298 39.4001 46.7224 39.3995 46.9277C39.3981 47.3743 39.6296 47.7369 40.0545 47.9538L40.2193 48.038L43.9844 48.0478C46.8689 48.0554 47.7856 48.0479 47.9036 48.0159C48.2612 47.9188 48.558 47.6421 48.6803 47.2915C48.7385 47.1247 48.7422 46.8944 48.7422 43.402V39.6898L48.6621 39.4915C48.5514 39.2172 48.2892 38.9539 48.0305 38.8572C47.8274 38.7812 47.4658 38.7607 47.2875 38.8151Z" fill="black"/>
</mask>
<g mask="url(#mask0_381_98441)">
<path d="M9.33594 9.75H44.7812V28.0312H9.33594V9.75Z" fill="#BA3614"/>
</g>
</svg>
