<svg width="102" height="16" viewBox="0 0 102 16" fill="none" xmlns="http://www.w3.org/2000/svg">
<path d="M0.326172 10.9863H3.16797C3.30469 12.1484 4.51562 12.9102 6.07812 12.9102C7.65039 12.9102 8.72461 12.1582 8.72461 11.123C8.72461 10.2051 8.05078 9.69727 6.35156 9.31641L4.51562 8.91602C1.91797 8.35938 0.638672 7.04102 0.638672 4.98047C0.638672 2.38281 2.88477 0.664062 6.0293 0.664062C9.31055 0.664062 11.3711 2.35352 11.4199 4.90234H8.65625C8.55859 3.71094 7.51367 2.98828 6.03906 2.98828C4.58398 2.98828 3.60742 3.68164 3.60742 4.72656C3.60742 5.5957 4.29102 6.08398 5.91211 6.45508L7.62109 6.81641C10.4434 7.42188 11.6738 8.63281 11.6738 10.7812C11.6738 13.5156 9.45703 15.2441 5.96094 15.2441C2.57227 15.2441 0.414062 13.6328 0.326172 10.9863ZM19.7207 15.2441C15.6191 15.2441 13.0508 12.5 13.0508 7.94922C13.0508 3.4082 15.6387 0.664062 19.7207 0.664062C23.1094 0.664062 25.6875 2.8125 25.9121 5.9668H23.041C22.7676 4.23828 21.4395 3.10547 19.7207 3.10547C17.4941 3.10547 16.0586 4.9707 16.0586 7.93945C16.0586 10.9473 17.4746 12.8027 19.7305 12.8027C21.4785 12.8027 22.7383 11.7773 23.0508 10.1074H25.9219C25.5898 13.252 23.1777 15.2441 19.7207 15.2441ZM36.4883 15L35.4141 11.582H30.4629L29.3887 15H26.3613L31.2539 0.908203H34.7207L39.623 15H36.4883ZM32.9043 3.60352L31.0977 9.375H34.7793L32.9727 3.60352H32.9043ZM43.8906 15H41.0684V0.908203H43.5293L50.1113 10.0879H50.1895V0.908203H53.0117V15H50.5703L43.9785 5.77148H43.8906V15ZM64.7012 12.5586V15H55.3652V0.908203H64.7012V3.33984H58.3145V6.73828H64.3398V9.00391H58.3145V12.5586H64.7012ZM76.0586 15L74.9844 11.582H70.0332L68.959 15H65.9316L70.8242 0.908203H74.291L79.1934 15H76.0586ZM72.4746 3.60352L70.668 9.375H74.3496L72.543 3.60352H72.4746ZM85.0918 15H82.1426V3.33984H78.0215V0.908203H89.2227V3.33984H85.0918V15ZM90.3262 10.9863H93.168C93.3047 12.1484 94.5156 12.9102 96.0781 12.9102C97.6504 12.9102 98.7246 12.1582 98.7246 11.123C98.7246 10.2051 98.0508 9.69727 96.3516 9.31641L94.5156 8.91602C91.918 8.35938 90.6387 7.04102 90.6387 4.98047C90.6387 2.38281 92.8848 0.664062 96.0293 0.664062C99.3105 0.664062 101.371 2.35352 101.42 4.90234H98.6562C98.5586 3.71094 97.5137 2.98828 96.0391 2.98828C94.584 2.98828 93.6074 3.68164 93.6074 4.72656C93.6074 5.5957 94.291 6.08398 95.9121 6.45508L97.6211 6.81641C100.443 7.42188 101.674 8.63281 101.674 10.7812C101.674 13.5156 99.457 15.2441 95.9609 15.2441C92.5723 15.2441 90.4141 13.6328 90.3262 10.9863Z" fill="#EF6320"/>
</svg>
