<svg width="22" height="22" viewBox="0 0 22 22" fill="none" xmlns="http://www.w3.org/2000/svg">
<g clip-path="url(#clip0_815_125891)">
<path d="M1.87921 1.87921H3.71255L6.15088 13.2642C6.24033 13.6812 6.47233 14.0539 6.80695 14.3182C7.14157 14.5826 7.55788 14.722 7.98421 14.7125H16.9492C17.3665 14.7119 17.771 14.5689 18.096 14.3072C18.421 14.0456 18.647 13.6809 18.7367 13.2734L20.2492 6.46254H4.69338M8.25 19.25C8.25 19.7563 7.83959 20.1667 7.33333 20.1667C6.82707 20.1667 6.41667 19.7563 6.41667 19.25C6.41667 18.7437 6.82707 18.3333 7.33333 18.3333C7.83959 18.3333 8.25 18.7437 8.25 19.25ZM18.3333 19.25C18.3333 19.7563 17.9229 20.1667 17.4167 20.1667C16.9104 20.1667 16.5 19.7563 16.5 19.25C16.5 18.7437 16.9104 18.3333 17.4167 18.3333C17.9229 18.3333 18.3333 18.7437 18.3333 19.25Z" stroke="#EF6320" stroke-width="2" stroke-linecap="round" stroke-linejoin="round"/>
</g>
<defs>
<clipPath id="clip0_815_125891">
<rect width="22" height="22" fill="white"/>
</clipPath>
</defs>
</svg>
