<svg width="180" height="212" viewBox="0 0 180 212" fill="none" xmlns="http://www.w3.org/2000/svg">
    <g filter="url(#filter0_d_446_5714)">
        <path
            d="M90 157.616C102.145 157.616 142 102.804 142 74.0546C142 45.3057 118.719 22 90 22C61.2812 22 38 45.3057 38 74.0546C38 75.6325 38.1201 77.289 38.349 79.0106C39.2563 85.8327 47.6317 87.7287 52.5296 82.8938L56.5627 78.9124C56.7404 78.737 57.0042 78.6817 57.2373 78.7709L57.4576 78.8552C57.6937 78.9456 57.955 78.8032 58.1112 78.6043C59.8559 76.4107 64.8744 70.2305 66.8936 68.8621C66.9992 68.7905 67.0413 68.6523 66.9846 68.538C66.923 68.4138 66.7701 68.3667 66.6552 68.4443C64.9305 69.6091 61.3329 73.8491 59.0661 76.6151C58.3835 77.448 57.7073 77.1421 58.4046 76.3214C58.7073 75.9628 59.0858 75.5233 59.4991 75.0433C61.2411 73.0203 63.6009 70.2799 63.5018 69.8653C63.3716 69.3604 63.606 68.7445 64.1402 68.2304C64.247 68.1277 64.9866 67.3844 66.1137 66.2519C70.4783 61.8661 80.6521 51.6428 82.3726 50.1773C82.4696 50.0946 82.4405 50.0981 82.5544 50.0406C83.1823 49.7238 83.2135 48.4651 82.6624 48.9021C82.6518 48.9105 82.6415 48.9194 82.6315 48.9289C81.7977 49.6659 80.4624 48.6127 79.9522 48.1522C79.8099 48.0238 79.6753 47.889 79.5364 47.757C79.304 47.5362 79.3882 47.1587 79.6895 47.0181C81.0973 46.3217 82.4817 47.3795 83.0027 47.8562C83.1444 47.9859 83.3514 48.0536 83.5184 48.1484C83.8734 48.3498 84.349 48.4115 84.6106 48.0982C85.9231 46.5259 87.4183 44.5191 87.67 44.1554L87.8059 43.9643C88.2611 43.4209 88.859 42.9521 89.5495 42.739C90.3729 42.4765 91.2284 42.6137 91.9578 43.0141C91.9804 43.0265 92.0899 43.0834 92.1153 43.0878C92.1407 43.0937 92.1663 43.0995 92.192 43.1054C92.4441 43.163 92.7056 43.2228 92.9419 43.309C93.8492 43.6221 94.6822 44.0934 95.4772 44.6047C95.9359 44.8938 96.5561 45.023 97.1782 45.1525C97.9144 45.3058 98.6532 45.4596 99.1301 45.8797C99.754 46.4267 102.158 48.7109 102.728 49.2984C103.17 49.7508 103.359 50.4776 103.548 51.202C103.71 51.8214 103.871 52.4389 104.188 52.8814C104.74 53.6492 105.245 54.4651 105.612 55.3471C105.713 55.6103 105.798 55.8897 105.875 56.1614C105.885 56.2053 105.932 56.2743 105.957 56.3123C106.401 57.0135 106.582 57.8618 106.355 58.706C106.161 59.4068 105.732 60.0355 105.22 60.5099C105.185 60.5473 105.142 60.5779 105.099 60.6086C105.078 60.6239 105.057 60.6392 105.036 60.6554C104.672 60.9262 102.749 62.5265 101.247 63.9192C100.945 64.1999 101.023 64.6606 101.252 65.0042C101.361 65.1674 101.443 65.3723 101.582 65.5106C102.085 66.0115 103.201 67.3405 102.585 68.7718C102.453 69.088 102.072 69.1837 101.855 68.9625C101.716 68.8305 101.574 68.7033 101.438 68.5682C100.952 68.0851 99.8338 66.8137 100.527 65.9314C100.535 65.9212 100.543 65.9107 100.551 65.9002C100.968 65.3255 99.7135 65.4233 99.4189 66.0693C99.369 66.1789 99.3731 66.1488 99.3 66.2445C97.8241 68.1754 86.3955 80.7596 83.0818 84.4083C82.5754 84.9659 82.2585 85.3149 82.1956 85.3852C81.7095 85.9449 81.0984 86.203 80.5955 86.1064C80.1827 86.0222 77.5642 88.5213 75.6313 90.3661C75.1721 90.8045 74.7515 91.2059 74.4084 91.5269C73.5751 92.3118 72.565 92.9195 71.7503 93.7237L68.3134 97.1165C58.4056 106.897 56.0376 122.249 64.233 133.503C74.3627 147.413 84.7603 157.616 90 157.616Z"
            fill="white" />
        <path
            d="M73.8857 90.8785C73.9751 90.9127 74.0751 90.8948 74.146 90.8305C76.7977 88.4245 80.7964 84.6554 81.8556 82.8828C81.9266 82.764 81.8707 82.6156 81.7438 82.5606C81.6264 82.5097 81.4909 82.5579 81.4249 82.6676C80.4174 84.3441 76.4354 88.0764 73.8056 90.4526C73.6647 90.5799 73.7084 90.8106 73.8857 90.8785Z"
            fill="white" />
        <path
            d="M63.7037 97.7822C66.356 95.164 65.3773 89.9861 62.6835 87.4105C60.0615 84.9036 55.1616 84.1803 52.58 86.7288L47.0307 92.2068C44.6558 94.5512 43.8336 97.9636 45.1909 101.012C47.4543 106.096 54.142 107.221 58.1026 103.311L63.7037 97.7822Z"
            fill="white" />
        <path
            d="M100.65 66.2156C100.692 66.3885 100.556 66.4892 100.564 66.3116C100.566 66.28 100.569 66.2489 100.574 66.2182C100.584 66.1541 100.635 66.1525 100.65 66.2156Z"
            fill="white" />
        <path
            d="M68.2001 81.9C68.198 81.9022 68.1945 81.9023 68.1923 81.9002L67.2667 81.0208C65.0789 78.9421 65.4113 75.1257 67.8274 72.679C68.3266 72.179 69.1519 72.2374 69.5952 72.7875C71.8528 75.5891 74.4471 78.0539 77.3658 80.17C77.9379 80.5848 78.0382 81.4061 77.5643 81.9303C75.2538 84.4743 71.4627 85.0023 69.2742 82.9282C69.2715 82.9257 69.2691 82.9233 69.2664 82.9207C69.2 82.8567 68.275 81.9643 68.2074 81.8994C68.2052 81.8972 68.2022 81.8978 68.2001 81.9Z"
            fill="white" />
        <path
            d="M64.3839 73.4787C64.358 73.454 64.3922 73.4183 64.4131 73.3892C64.6919 73.0001 66.1752 70.9856 67.0578 70.1028C67.2834 69.8801 67.6655 70.5491 67.7865 70.7609C67.7875 70.7626 67.7885 70.7644 67.7894 70.766C67.8034 70.7905 67.8233 70.8217 67.8039 70.8421C67.58 71.0464 65.5083 73.0578 65.1724 74.061C65.1568 74.1078 65.133 74.1903 65.0972 74.1563L64.3839 73.4787Z"
            fill="white" />
        <path
            d="M79.408 81.8675C79.4274 81.847 79.4596 81.8653 79.4847 81.878C79.4865 81.8788 79.4882 81.8797 79.49 81.8806C79.7077 81.9906 80.3954 82.3381 80.1846 82.5748C79.3453 83.5043 77.3995 85.0959 77.0341 85.3869C77.0087 85.4071 76.9733 85.4401 76.9498 85.4177L76.2365 84.74C76.2205 84.7248 76.2353 84.6932 76.2586 84.6847C77.1915 84.3779 79.1164 82.1977 79.3921 81.8855L79.408 81.8675Z"
            fill="white" />
        <path
            d="M82.3625 48.834C82.4163 48.8433 82.4179 48.8877 82.3647 48.9C82.334 48.907 82.3026 48.9122 82.2706 48.9156C82.1103 48.9325 82.2036 48.8067 82.3625 48.834Z"
            fill="white" />
        <path
            d="M99.9385 62.8314C101.557 61.5591 103.844 59.7605 105.065 58.4262C104.13 59.7155 102.164 61.6087 98.122 64.3742C98.1169 64.3777 98.1097 64.3742 98.1095 64.368C98.1095 64.3672 98.1096 64.3666 98.1098 64.3658C98.1499 64.2378 98.9087 63.6412 99.9385 62.8314Z"
            fill="white" />
        <path
            d="M87.0643 77.6489C86.2034 77.4875 85.9767 76.4827 86.6037 75.8711C86.9558 75.5276 87.3196 75.1764 87.6929 74.8203C89.5128 73.0841 90.8862 74.5411 89.1119 76.3239C88.7673 76.67 88.4234 77.0091 88.0824 77.3377C87.8127 77.5977 87.4325 77.7179 87.0643 77.6489Z"
            fill="white" />
        <path
            d="M84.4648 78.0031C84.7228 77.7417 85.0893 77.6648 85.4368 77.7836C86.1166 78.0161 86.4048 78.9064 85.854 79.3678C84.8149 80.2381 83.8753 80.9021 83.1262 81.2336C82.1473 81.6668 82.0094 80.5419 82.7492 79.7682C83.213 79.2833 83.7934 78.6832 84.4648 78.0031Z"
            fill="white" />
        <path
            d="M71.5742 64.6125C71.7106 64.9535 71.6526 65.3234 71.4048 65.5944C70.7609 66.2986 70.1909 66.9094 69.7296 67.3979C68.9947 68.1764 67.8642 68.0961 68.2469 67.0963C68.5397 66.3313 69.1547 65.3589 69.9707 64.2768C70.4033 63.7031 71.3073 63.9454 71.5742 64.6125Z"
            fill="white" />
        <path
            d="M73.4123 63.3626C72.8357 64.0176 71.8293 63.8393 71.6227 62.9916C71.5332 62.6242 71.6327 62.2359 71.881 61.9506C75.0887 58.2633 79.3778 54.2195 81.2642 52.4802C81.8999 51.8942 82.0185 51.9921 81.5691 52.7307C79.4284 56.2495 76.1637 60.2373 73.4123 63.3626Z"
            fill="white" />
        <path
            d="M84.3075 52.0919C84.5059 51.8991 84.7206 51.7373 84.9679 51.6215C85.8563 51.2 86.8998 51.3375 87.573 51.9771C87.6103 52.0126 87.6432 52.0422 87.6828 52.0753C88.398 52.673 96.0262 59.0724 97.124 61.0217C97.1366 61.0441 97.1492 61.0629 97.1651 61.0831C97.1814 61.1037 97.1954 61.1248 97.2074 61.1482C97.334 61.3952 98.0859 62.9241 97.7341 63.7509C97.6231 63.9961 97.4804 64.2265 97.2981 64.4345C97.1915 64.5467 97.0768 64.6513 96.9542 64.7482L91.8087 68.3985C91.5859 68.5747 91.3334 68.2774 91.1611 68.0515C88.4767 64.5309 84.8101 61.2876 80.6549 58.167C80.5508 58.068 80.5387 57.9041 80.6293 57.7767L84.0117 52.4513C84.0943 52.3163 84.2009 52.2041 84.3075 52.0919Z"
            fill="white" />
        <path
            d="M84.3188 51.2781C84.3182 51.2783 84.3184 51.2788 84.3179 51.2783C84.3163 51.277 84.31 51.2664 84.311 51.2646C86.8733 47.08 88.6631 45.0203 89.8952 44.0281C88.6251 45.316 86.9458 47.6923 85.7578 49.3733C85.0015 50.4436 84.4443 51.232 84.3188 51.2781Z"
            fill="white" />
        <path
            d="M95.0918 45.0871C95.2326 45.1582 95.3441 45.2146 95.4155 45.2475C94.9407 45.1796 94.2393 45.5171 93.4375 46.0235C93.3937 46.0511 93.3604 45.9692 93.3871 45.9248C93.4003 45.9028 93.3756 45.9058 93.3544 45.8914C93.1267 45.7372 91.9257 44.9441 91.613 45.1571C91.0203 45.5609 91.3621 46.4732 91.8847 46.9645C91.916 46.9939 91.946 47.0243 91.9744 47.0557C91.996 47.0763 91.9956 47.1109 91.9731 47.1304C91.9326 47.1658 91.8913 47.2003 91.85 47.2348C91.8075 47.2703 91.765 47.3058 91.7235 47.3421C91.7008 47.3619 91.6678 47.3649 91.6423 47.3489C91.2735 47.1186 90.2664 46.4896 89.9788 46.6845C89.8729 46.7567 89.7266 46.8893 89.5748 47.0386C89.2314 47.3761 89.4036 47.9617 89.8208 48.2021C89.9442 48.2732 90.0655 48.3539 90.1749 48.444C90.2713 48.5235 90.2658 48.6681 90.1764 48.7555C90.0804 48.8493 89.934 48.8632 89.8189 48.7941C89.3592 48.5181 88.6314 48.1195 88.3855 48.2813C88.2699 48.3609 88.0906 48.5265 87.9016 48.7134C87.5534 49.0576 87.6256 49.6341 88.0819 49.8114C88.3772 49.9261 88.3103 50.6072 88.0908 50.8355C87.775 51.1639 87.1458 50.9775 86.7062 50.858C86.6947 50.8549 86.6831 50.8518 86.6716 50.8488C86.2489 50.737 86.0186 50.243 86.2605 49.8788C88.6191 46.3288 90.529 44.8588 91.3486 44.3404C91.6288 44.1631 91.932 43.9862 92.2628 44.0092C93.0694 44.0651 94.4166 44.7459 95.0918 45.0871Z"
            fill="white" />
        <path
            d="M95.4155 45.2475C95.4665 45.229 95.4972 45.2857 95.4478 45.2633C95.438 45.2589 95.4272 45.2536 95.4155 45.2475Z"
            fill="white" />
        <path
            d="M102.947 55.0364C102.906 55.0639 102.827 55.0347 102.852 54.9926C103.347 54.1717 103.635 53.4545 103.558 52.9835C103.588 53.0395 103.636 53.1219 103.696 53.2248C104.039 53.8142 104.773 55.0767 104.919 55.9158C104.993 56.3413 104.776 56.7523 104.556 57.1238C104.017 58.0321 102.618 59.9434 99.3611 62.3564C99.0097 62.6167 98.5047 62.4119 98.3714 61.9955C98.3677 61.9841 98.3641 61.9726 98.3603 61.9612C98.2185 61.5284 98.0002 60.9097 98.3119 60.5776C98.5288 60.3467 99.1111 60.0966 99.2601 60.3762C99.263 60.3816 99.2659 60.3871 99.2687 60.3925C99.4959 60.8266 100.118 61.0274 100.444 60.6617C100.621 60.4632 100.777 60.2746 100.848 60.1526C100.983 59.9381 100.674 59.3701 100.391 58.9342C100.248 58.7136 100.264 58.4195 100.431 58.2164C100.431 58.2163 100.431 58.2163 100.431 58.2164C100.591 58.351 100.731 58.5265 100.849 58.7084C101.114 59.1152 101.712 59.2587 102.033 58.8952C102.171 58.7392 102.294 58.5894 102.361 58.4797C102.549 58.17 101.81 57.1176 101.583 56.8106C101.583 56.8106 101.583 56.8106 101.583 56.8106C101.663 56.713 101.742 56.6154 101.816 56.5127C101.833 56.4892 101.867 56.4857 101.888 56.5057C101.921 56.5323 101.953 56.5606 101.984 56.5904C102.502 57.089 103.429 57.3838 103.803 56.7695C103.993 56.4384 103.139 55.2787 102.979 55.0657C102.964 55.0466 102.966 55.023 102.947 55.0364Z"
            fill="white" />
        <path
            d="M103.558 52.9835C103.546 52.9557 103.537 52.9349 103.532 52.9207C103.523 52.8961 103.544 52.9187 103.549 52.9446C103.551 52.9583 103.553 52.9719 103.558 52.9835Z"
            fill="white" />
        <path
            d="M98.652 46.1421C98.863 46.2065 99.0603 46.3327 99.2198 46.4834C99.2221 46.4854 99.2221 46.4889 99.22 46.4912C99.2179 46.4934 99.218 46.4969 99.2202 46.499L102.398 49.518C102.598 49.7084 102.737 49.9472 102.822 50.2109L103.275 51.7084C103.317 51.8246 103.25 51.9436 103.141 51.9777C103.032 52.0117 102.913 51.9444 102.879 51.8358L102.461 50.4469C102.384 50.1908 102.237 49.9443 102.036 49.754L98.999 46.8682C98.8307 46.7083 98.64 46.5881 98.4192 46.5155L96.5651 45.8671C96.4545 45.823 96.3968 45.7072 96.4409 45.5966C96.4774 45.494 96.6008 45.4283 96.7114 45.4724L98.652 46.1421Z"
            fill="white" />
    </g>
    <path
        d="M0 211.616V181.616H12.0309C14.7889 181.616 17.0543 182.03 18.8273 182.859C20.6003 183.659 21.9089 184.83 22.7532 186.373C23.6256 187.887 24.0618 189.716 24.0618 191.859C24.0618 193.973 23.6256 195.802 22.7532 197.345C21.9089 198.887 20.6003 200.073 18.8273 200.902C17.0543 201.702 14.7889 202.102 12.0309 202.102H7.59846V211.616H0ZM7.59846 195.759H11.1866C13.1285 195.759 14.4934 195.43 15.2813 194.773C16.0693 194.116 16.4633 193.145 16.4633 191.859C16.4633 190.573 16.0693 189.602 15.2813 188.945C14.4934 188.287 13.1285 187.959 11.1866 187.959H7.59846V195.759Z"
        fill="white" />
    <path
        d="M22.0985 211.616L32.9052 181.616H40.5037L51.2682 211.616H43.2476L41.2213 205.873H31.3433L29.3171 211.616H22.0985ZM33.4962 199.959H39.0684L36.2823 191.045L33.4962 199.959Z"
        fill="white" />
    <path
        d="M53.7993 211.616V181.616H66.6745C69.151 181.616 71.2054 182.03 72.8377 182.859C74.4981 183.687 75.7504 184.845 76.5947 186.33C77.439 187.816 77.8611 189.587 77.8611 191.645C77.8611 193.787 77.3545 195.63 76.3414 197.173C75.3564 198.687 73.8649 199.802 71.8668 200.516L78.7054 211.616H70.2626L64.5216 201.33H61.3978V211.616H53.7993ZM61.3978 195.33H64.9859C67.0122 195.33 68.3912 195.03 69.1229 194.43C69.8827 193.802 70.2626 192.873 70.2626 191.645C70.2626 190.416 69.8827 189.502 69.1229 188.902C68.3912 188.273 67.0122 187.959 64.9859 187.959H61.3978V195.33Z"
        fill="white" />
    <path
        d="M82.3067 211.616V181.616H89.9052V193.659L100.205 181.616H108.479L97.5037 193.959L109.323 211.616H100.459L92.3536 198.973L89.9052 201.716V211.616H82.3067Z"
        fill="white" />
    <path
        d="M121.76 211.616V181.616H129.527L137.717 196.83L145.822 181.616H153.42V211.616H145.822V194.43L139.701 205.83H135.479L129.358 194.43V211.616H121.76Z"
        fill="white" />
    <path
        d="M158.471 211.616V181.616H180V187.53H166.069V193.402H178.734V198.973H166.069V205.702H180V211.616H158.471Z"
        fill="white" />
    <defs>
        <filter id="filter0_d_446_5714" x="6" y="0" width="168" height="199.616"
            filterUnits="userSpaceOnUse" color-interpolation-filters="sRGB">
            <feFlood flood-opacity="0" result="BackgroundImageFix" />
            <feColorMatrix in="SourceAlpha" type="matrix"
                values="0 0 0 0 0 0 0 0 0 0 0 0 0 0 0 0 0 0 127 0" result="hardAlpha" />
            <feOffset dy="10" />
            <feGaussianBlur stdDeviation="16" />
            <feComposite in2="hardAlpha" operator="out" />
            <feColorMatrix type="matrix" values="0 0 0 0 0 0 0 0 0 0 0 0 0 0 0 0 0 0 0.08 0" />
            <feBlend mode="normal" in2="BackgroundImageFix" result="effect1_dropShadow_446_5714" />
            <feBlend mode="normal" in="SourceGraphic" in2="effect1_dropShadow_446_5714"
                result="shape" />
        </filter>
    </defs>
</svg>
