<svg width="210" height="40" viewBox="0 0 210 40" fill="none" xmlns="http://www.w3.org/2000/svg">
<g clip-path="url(#clip0_446_5705)">
<path d="M40.8563 35.4839V7.4839H52.1125C54.6928 7.4839 56.8124 7.87057 58.4712 8.6439C60.13 9.39057 61.3544 10.4839 62.1443 11.9239C62.9605 13.3372 63.3687 15.0439 63.3687 17.0439C63.3687 19.0172 62.9605 20.7239 62.1443 22.1639C61.3544 23.6039 60.13 24.7106 58.4712 25.4839C56.8124 26.2306 54.6928 26.6039 52.1125 26.6039H47.9654V35.4839H40.8563ZM47.9654 20.6839H51.3226C53.1393 20.6839 54.4164 20.3772 55.1536 19.7639C55.8909 19.1506 56.2595 18.2439 56.2595 17.0439C56.2595 15.8439 55.8909 14.9372 55.1536 14.3239C54.4164 13.7106 53.1393 13.4039 51.3226 13.4039H47.9654V20.6839Z" fill="#FAC414"/>
<path d="M61.5318 35.4839L71.6426 7.4839H78.7518L88.8231 35.4839H81.319L79.4232 30.1239H70.1813L68.2855 35.4839H61.5318ZM72.1956 24.6039H77.409L74.8023 16.2839L72.1956 24.6039Z" fill="#FAC414"/>
<path d="M91.1913 35.4839V7.4839H103.237C105.554 7.4839 107.477 7.87057 109.004 8.6439C110.557 9.41723 111.729 10.4972 112.519 11.8839C113.309 13.2706 113.704 14.9239 113.704 16.8439C113.704 18.8439 113.23 20.5639 112.282 22.0039C111.36 23.4172 109.965 24.4572 108.095 25.1239L114.494 35.4839H106.595L101.223 25.8839H98.3005V35.4839H91.1913ZM98.3005 20.2839H101.658C103.553 20.2839 104.844 20.0039 105.528 19.4439C106.239 18.8572 106.595 17.9906 106.595 16.8439C106.595 15.6972 106.239 14.8439 105.528 14.2839C104.844 13.6972 103.553 13.4039 101.658 13.4039H98.3005V20.2839Z" fill="#FAC414"/>
<path d="M117.863 35.4839V7.4839H124.972V18.7239L134.609 7.4839H142.35L132.081 19.0039L143.14 35.4839H134.846L127.263 23.6839L124.972 26.2439V35.4839H117.863Z" fill="#FAC414"/>
<path d="M154.776 35.4839V7.4839H162.043L169.705 21.6839L177.288 7.4839H184.397V35.4839H177.288V19.4439L171.561 30.0839H167.612L161.885 19.4439V35.4839H154.776Z" fill="#FAC414"/>
<path d="M189.123 35.4839V7.4839H209.266V13.0039H196.232V18.4839H208.081V23.6839H196.232V29.9639H209.266V35.4839H189.123Z" fill="#FAC414"/>
<path d="M15.1439 40C18.6809 40 30.2879 23.8331 30.2879 15.3535C30.2879 6.87401 23.5077 0 15.1439 0C6.78017 0 0 6.87401 0 15.3535C0 15.8189 0.034966 16.3075 0.101644 16.8153C0.365874 18.8275 2.80504 19.3867 4.23144 17.9606L5.40602 16.7863C5.45776 16.7346 5.53458 16.7183 5.60248 16.7446L5.66662 16.7695C5.7354 16.7961 5.81148 16.7541 5.85697 16.6955C6.3651 16.0485 7.82662 14.2256 8.41469 13.822C8.44544 13.8009 8.45768 13.7601 8.44118 13.7264C8.42325 13.6898 8.3787 13.6759 8.34523 13.6988C7.84296 14.0423 6.79523 15.2929 6.13507 16.1087C5.93627 16.3544 5.73935 16.2642 5.94243 16.0221C6.03058 15.9164 6.14081 15.7867 6.26117 15.6452C6.76851 15.0484 7.45573 14.2402 7.42688 14.1179C7.38896 13.969 7.45724 13.7873 7.61281 13.6357C7.64389 13.6054 7.85931 13.3862 8.18755 13.0521C9.45864 11.7585 12.4216 8.74317 12.9226 8.31092C12.9509 8.28653 12.9424 8.28755 12.9756 8.2706C13.1584 8.17714 13.1675 7.80589 13.007 7.9348C13.0039 7.93727 13.0009 7.9399 12.998 7.94269C12.7552 8.16008 12.3663 7.84943 12.2177 7.71359C12.1763 7.67573 12.1371 7.63596 12.0966 7.59704C12.0289 7.53191 12.0535 7.42057 12.1412 7.37909C12.5512 7.17371 12.9544 7.48569 13.1061 7.6263C13.1474 7.66454 13.2077 7.68453 13.2563 7.71247C13.3597 7.77187 13.4982 7.79008 13.5744 7.69766C13.9566 7.23393 14.3921 6.64201 14.4654 6.53476L14.505 6.47838C14.6375 6.31812 14.8117 6.17984 15.0127 6.11698C15.2525 6.03954 15.5017 6.08001 15.7141 6.19812C15.7207 6.20178 15.7526 6.21855 15.76 6.21986C15.7674 6.22158 15.7748 6.22331 15.7823 6.22504C15.8557 6.24205 15.9319 6.25969 16.0007 6.28511C16.2649 6.37744 16.5075 6.51645 16.7391 6.66728C16.8726 6.75255 17.0533 6.79064 17.2345 6.82884C17.4489 6.87405 17.664 6.91942 17.8029 7.04331C17.9846 7.20466 18.6848 7.8784 18.8508 8.05168C18.9794 8.1851 19.0346 8.39949 19.0896 8.61313C19.1366 8.79583 19.1835 8.97798 19.276 9.10847C19.4366 9.33494 19.5838 9.57558 19.6906 9.83573C19.7199 9.91339 19.7447 9.99577 19.7673 10.0759C19.7702 10.0889 19.7839 10.1092 19.791 10.1204C19.9205 10.3272 19.9732 10.5774 19.9069 10.8264C19.8507 11.0332 19.7255 11.2186 19.5765 11.3585C19.5662 11.3695 19.5537 11.3786 19.5413 11.3876C19.5351 11.3921 19.5289 11.3967 19.5229 11.4014C19.4167 11.4813 18.8567 11.9533 18.4194 12.3641C18.3313 12.4469 18.3542 12.5828 18.4209 12.6841C18.4525 12.7322 18.4765 12.7927 18.517 12.8335C18.6635 12.9812 18.9885 13.3732 18.8092 13.7954C18.7705 13.8886 18.6597 13.9169 18.5965 13.8516C18.5561 13.8127 18.5148 13.7751 18.4752 13.7353C18.3335 13.5928 18.0078 13.2178 18.2096 12.9576C18.2121 12.9546 18.2145 12.9515 18.2167 12.9484C18.3382 12.7789 17.9728 12.8077 17.887 12.9983C17.8725 13.0306 17.8737 13.0217 17.8524 13.0499C17.4226 13.6194 14.0942 17.3312 13.1291 18.4074C12.9817 18.5718 12.8894 18.6747 12.8711 18.6955C12.7295 18.8606 12.5515 18.9367 12.4051 18.9082C12.2848 18.8834 11.5223 19.6205 10.9594 20.1646C10.8256 20.2939 10.7031 20.4123 10.6032 20.507C10.3605 20.7385 10.0664 20.9177 9.8291 21.1549L8.82817 22.1556C5.94273 25.0404 5.25309 29.5684 7.63984 32.8879C10.5899 36.9907 13.618 40 15.1439 40Z" fill="#FAC414"/>
<path d="M10.451 20.3158C10.477 20.3258 10.5061 20.3206 10.5268 20.3016C11.299 19.5919 12.4636 18.4803 12.7721 17.9574C12.7927 17.9224 12.7765 17.8786 12.7395 17.8624C12.7053 17.8474 12.6658 17.8616 12.6466 17.8939C12.3532 18.3884 11.1935 19.4893 10.4277 20.1901C10.3866 20.2277 10.3993 20.2957 10.451 20.3158Z" fill="#FAC414"/>
<path d="M7.48567 22.352C8.2581 21.5797 7.97309 20.0525 7.18858 19.2929C6.42497 18.5534 4.99798 18.3401 4.24613 19.0918L2.63001 20.7075C1.93836 21.399 1.69892 22.4055 2.09419 23.3047C2.75339 24.8043 4.70104 25.136 5.85449 23.9828L7.48567 22.352Z" fill="#FAC414"/>
<path d="M18.2456 13.0414C18.2577 13.0924 18.2182 13.1221 18.2206 13.0697C18.221 13.0604 18.2219 13.0512 18.2234 13.0422C18.2265 13.0233 18.2412 13.0228 18.2456 13.0414Z" fill="#FAC414"/>
<path d="M8.79516 17.6675C8.79455 17.6682 8.79353 17.6682 8.79288 17.6676L8.52332 17.4082C7.88617 16.7951 7.98298 15.6694 8.68662 14.9478C8.83201 14.8003 9.07235 14.8175 9.20146 14.9798C9.85894 15.8061 10.6145 16.5331 11.4645 17.1573C11.6311 17.2796 11.6603 17.5218 11.5223 17.6765C10.8494 18.4268 9.74533 18.5826 9.10799 17.9708C9.10719 17.9701 9.10649 17.9694 9.1057 17.9686C9.08637 17.9497 8.81699 17.6865 8.79728 17.6673C8.79664 17.6667 8.79577 17.6669 8.79516 17.6675Z" fill="#FAC414"/>
<path d="M7.68379 15.1837C7.67622 15.1764 7.68619 15.1658 7.69227 15.1573C7.77348 15.0425 8.20546 14.4483 8.46248 14.1879C8.5282 14.1223 8.63949 14.3196 8.67472 14.382C8.67501 14.3826 8.67529 14.3831 8.67557 14.3836C8.67965 14.3908 8.68542 14.4 8.67977 14.406C8.61458 14.4663 8.01124 15.0595 7.91342 15.3554C7.90885 15.3692 7.90193 15.3936 7.89151 15.3835L7.68379 15.1837Z" fill="#FAC414"/>
<path d="M12.0592 17.6579C12.0649 17.6519 12.0743 17.6573 12.0816 17.661C12.0821 17.6613 12.0826 17.6616 12.0831 17.6618C12.1465 17.6943 12.3468 17.7967 12.2854 17.8666C12.041 18.1407 11.4743 18.6102 11.3679 18.696C11.3605 18.702 11.3502 18.7117 11.3433 18.7051L11.1356 18.5052C11.1309 18.5007 11.1353 18.4914 11.142 18.4889C11.4137 18.3984 11.9743 17.7553 12.0546 17.6633L12.0592 17.6579Z" fill="#FAC414"/>
<path d="M12.9197 7.9147C12.9353 7.91743 12.9358 7.93054 12.9203 7.93415C12.9114 7.93624 12.9022 7.93777 12.8929 7.93876C12.8462 7.94375 12.8734 7.90665 12.9197 7.9147Z" fill="#FAC414"/>
<path d="M18.0383 12.0432C18.5096 11.668 19.1757 11.1375 19.5314 10.7439C19.2589 11.1242 18.6864 11.6826 17.5093 12.4983C17.5078 12.4993 17.5057 12.4983 17.5057 12.4965C17.5057 12.4962 17.5057 12.496 17.5058 12.4958C17.5175 12.4581 17.7384 12.2821 18.0383 12.0432Z" fill="#FAC414"/>
<path d="M14.289 16.4137C14.0383 16.3661 13.9722 16.0697 14.1548 15.8893C14.2574 15.788 14.3633 15.6844 14.472 15.5794C15.0021 15.0673 15.402 15.497 14.8853 16.0228C14.785 16.1249 14.6848 16.225 14.5855 16.3219C14.5069 16.3986 14.3962 16.434 14.289 16.4137Z" fill="#FAC414"/>
<path d="M13.5319 16.5181C13.6071 16.441 13.7138 16.4183 13.815 16.4534C14.013 16.522 14.0969 16.7846 13.9365 16.9207C13.6339 17.1774 13.3602 17.3732 13.1421 17.471C12.857 17.5988 12.8168 17.267 13.0323 17.0388C13.1674 16.8957 13.3364 16.7187 13.5319 16.5181Z" fill="#FAC414"/>
<path d="M9.77781 12.5686C9.81754 12.6692 9.80063 12.7783 9.72846 12.8582C9.54094 13.0659 9.37494 13.246 9.24061 13.3901C9.02659 13.6197 8.69735 13.5961 8.80879 13.3012C8.89407 13.0755 9.07318 12.7887 9.31081 12.4696C9.4368 12.3004 9.70006 12.3718 9.77781 12.5686Z" fill="#FAC414"/>
<path d="M10.3131 12.1999C10.1452 12.3931 9.85211 12.3405 9.79194 12.0905C9.76587 11.9821 9.79485 11.8676 9.86714 11.7834C10.8013 10.6959 12.0504 9.50316 12.5998 8.99016C12.785 8.8173 12.8195 8.84618 12.6886 9.06404C12.0652 10.1019 11.1144 11.2781 10.3131 12.1999Z" fill="#FAC414"/>
<path d="M13.4861 8.87561C13.5439 8.81877 13.6064 8.77102 13.6784 8.73687C13.9372 8.61255 14.2411 8.65311 14.4371 8.84175C14.448 8.85223 14.4576 8.86096 14.4691 8.87071C14.6774 9.04701 16.899 10.9345 17.2187 11.5095C17.2223 11.5161 17.226 11.5216 17.2306 11.5276C17.2354 11.5337 17.2395 11.5399 17.243 11.5468C17.2798 11.6196 17.4988 12.0706 17.3963 12.3144C17.364 12.3868 17.3225 12.4547 17.2694 12.5161C17.2383 12.5492 17.2049 12.58 17.1692 12.6086L15.6707 13.6852C15.6058 13.7372 15.5323 13.6495 15.4821 13.5829C14.7003 12.5445 13.6325 11.5879 12.4224 10.6675C12.392 10.6383 12.3885 10.5899 12.4149 10.5523L13.4 8.98163C13.424 8.9418 13.4551 8.9087 13.4861 8.87561Z" fill="#FAC414"/>
<path d="M13.4891 8.63566C13.489 8.63573 13.4893 8.63579 13.4891 8.63566C13.4887 8.63525 13.4868 8.63213 13.4872 8.6316C14.2333 7.39735 14.7546 6.78986 15.1134 6.49721C14.7435 6.87705 14.2545 7.57796 13.9085 8.07378C13.6882 8.38945 13.5257 8.62206 13.4891 8.63566Z" fill="#FAC414"/>
<path d="M16.6268 6.80955C16.6678 6.83053 16.7003 6.84716 16.7211 6.85686C16.5828 6.83683 16.3786 6.93637 16.1451 7.08573C16.1323 7.09389 16.1226 7.06971 16.1304 7.05662C16.1342 7.05015 16.127 7.05102 16.1209 7.04678C16.0545 7.0013 15.7048 6.76737 15.6137 6.83019C15.4411 6.94929 15.5406 7.21838 15.6928 7.36328C15.7019 7.37197 15.7107 7.38094 15.7189 7.39019C15.7252 7.39625 15.7251 7.40646 15.7186 7.41224C15.7068 7.42265 15.6947 7.43284 15.6827 7.44302C15.6703 7.45349 15.658 7.46395 15.6459 7.47467C15.6393 7.48051 15.6297 7.48139 15.6222 7.47668C15.5148 7.40874 15.2215 7.22322 15.1378 7.28071C15.1069 7.302 15.0643 7.34112 15.0201 7.38515C14.9201 7.4847 14.9703 7.65741 15.0917 7.72832C15.1277 7.7493 15.163 7.77308 15.1949 7.79968C15.223 7.82311 15.2213 7.86578 15.1953 7.89153C15.1674 7.91922 15.1247 7.92331 15.0912 7.90292C14.9573 7.82154 14.7454 7.70397 14.6737 7.75168C14.6401 7.77516 14.5879 7.82401 14.5328 7.87913C14.4314 7.98066 14.4524 8.15068 14.5853 8.20298C14.6713 8.23681 14.6519 8.43771 14.5879 8.50505C14.496 8.6019 14.3127 8.54694 14.1847 8.51169C14.1813 8.51077 14.178 8.50986 14.1746 8.50896C14.0515 8.47598 13.9844 8.33029 14.0549 8.22287C14.7418 7.17581 15.298 6.74222 15.5367 6.5893C15.6183 6.53702 15.7066 6.48485 15.8029 6.49162C16.0378 6.50812 16.4302 6.70892 16.6268 6.80955Z" fill="#FAC414"/>
<path d="M16.7211 6.85686C16.736 6.85141 16.7449 6.86814 16.7305 6.86153C16.7277 6.86022 16.7245 6.85866 16.7211 6.85686Z" fill="#FAC414"/>
<path d="M18.9144 9.74409C18.9025 9.7522 18.8795 9.74361 18.8869 9.7312C19.0309 9.48907 19.1149 9.2775 19.0923 9.1386C19.1013 9.15513 19.1152 9.17942 19.1326 9.20976C19.2324 9.38362 19.4462 9.75598 19.4888 10.0035C19.5104 10.129 19.4472 10.2502 19.383 10.3598C19.2262 10.6277 18.8188 11.1914 17.8702 11.9031C17.7679 11.9799 17.6208 11.9195 17.5819 11.7967C17.5809 11.7933 17.5798 11.79 17.5787 11.7866C17.5374 11.6589 17.4738 11.4764 17.5646 11.3785C17.6278 11.3104 17.7974 11.2366 17.8408 11.3191C17.8416 11.3207 17.8424 11.3223 17.8433 11.3239C17.9094 11.4519 18.0906 11.5111 18.1856 11.4033C18.2372 11.3447 18.2825 11.2891 18.3032 11.2531C18.3426 11.1899 18.2526 11.0223 18.1702 10.8938C18.1286 10.8287 18.133 10.7419 18.1817 10.682C18.1817 10.682 18.1817 10.682 18.1817 10.682C18.2283 10.7217 18.2691 10.7735 18.3036 10.8272C18.3806 10.9472 18.5548 10.9895 18.6484 10.8823C18.6886 10.8363 18.7242 10.7921 18.7439 10.7597C18.7985 10.6683 18.5835 10.358 18.5174 10.2674C18.5174 10.2674 18.5174 10.2674 18.5174 10.2674C18.5405 10.2386 18.5637 10.2098 18.5852 10.1796C18.5902 10.1726 18.6001 10.1716 18.6062 10.1775C18.6157 10.1853 18.625 10.1937 18.634 10.2025C18.785 10.3495 19.0549 10.4365 19.1638 10.2553C19.2192 10.1576 18.9705 9.81555 18.9238 9.75274C18.9196 9.74711 18.9202 9.74016 18.9144 9.74409Z" fill="#FAC414"/>
<path d="M19.0923 9.1386C19.0888 9.13041 19.0863 9.12427 19.0848 9.12009C19.0822 9.11281 19.0885 9.1195 19.0898 9.12713C19.0904 9.13115 19.0911 9.13517 19.0923 9.1386Z" fill="#FAC414"/>
<path d="M17.6637 7.12072C17.7251 7.13971 17.7826 7.17695 17.829 7.22138C17.8297 7.22199 17.8297 7.22302 17.8291 7.22368C17.8285 7.22433 17.8285 7.22536 17.8291 7.22598L18.7545 8.11645C18.8129 8.17259 18.8534 8.24304 18.8781 8.32081L19.01 8.7625C19.0222 8.79678 19.0026 8.83188 18.971 8.84193C18.9393 8.85197 18.9047 8.83211 18.8948 8.80008L18.7728 8.39042C18.7504 8.31489 18.7076 8.2422 18.6493 8.18605L17.7647 7.33489C17.7157 7.28773 17.6602 7.25227 17.5959 7.23087L17.0559 7.0396C17.0237 7.0266 17.0069 6.99244 17.0197 6.95982C17.0303 6.92956 17.0663 6.91018 17.0985 6.92319L17.6637 7.12072Z" fill="#FAC414"/>
</g>
<defs>
<clipPath id="clip0_446_5705">
<rect width="210" height="40" fill="white"/>
</clipPath>
</defs>
</svg>
